<?xml version="1.0" encoding="iso-8859-1"?>
<!-- Generator: Adobe Illustrator 16.0.0, SVG Export Plug-In . SVG Version: 6.00 Build 0)  -->
<!DOCTYPE svg PUBLIC "-//W3C//DTD SVG 1.1//EN" "http://www.w3.org/Graphics/SVG/1.1/DTD/svg11.dtd">
<svg version="1.1" id="Capa_1" xmlns="http://www.w3.org/2000/svg" xmlns:xlink="http://www.w3.org/1999/xlink" x="0px" y="0px"
	 width="473.044px" height="473.044px" viewBox="0 0 473.044 473.044" style="enable-background:new 0 0 473.044 473.044;"
	 xml:space="preserve">
<g>
	<g>
		<path d="M371.42,451.706V21.337C371.42,9.566,361.853,0,350.077,0H122.962c-11.771,0-21.338,9.566-21.338,21.337v430.369
			c0,11.771,9.567,21.338,21.338,21.338h227.115C361.853,473.044,371.42,463.477,371.42,451.706z M359.781,451.706
			c0,5.353-4.353,9.704-9.704,9.704H122.962c-5.35,0-9.702-4.347-9.702-9.704V21.337c0-5.347,4.352-9.699,9.702-9.699h227.115
			c5.352,0,9.704,4.344,9.704,9.699V451.706L359.781,451.706z"/>
		<path d="M344.359,42.858H128.682c-1.612,0-2.915,1.295-2.915,2.907v374.625c0,1.614,1.302,2.914,2.915,2.914h215.677
			c1.614,0,2.914-1.3,2.914-2.914V45.765C347.273,44.163,345.974,42.858,344.359,42.858z M333.553,417.491H139.488
			c-4.359,0-7.899-3.54-7.899-7.896V56.581c0-4.362,3.54-7.901,7.899-7.901h194.055c4.362,0,7.901,3.54,7.901,7.901v353.014
			C341.454,413.951,337.915,417.491,333.553,417.491z"/>
		<path d="M263.533,433.11h-54.035c-1.604,0-2.907,1.306-2.907,2.91v14.406c0,1.614,1.303,2.909,2.907,2.909h54.035
			c1.604,0,2.909-1.305,2.909-2.909v-14.406C266.447,434.405,265.147,433.11,263.533,433.11z M252.727,447.521h-32.412
			c-4.362,0-7.901-1.929-7.901-4.301c0-2.366,3.539-4.296,7.901-4.296h32.412c4.362,0,7.902,1.92,7.902,4.296
			C260.629,445.593,257.094,447.521,252.727,447.521z"/>
	</g>
</g>
<g>
</g>
<g>
</g>
<g>
</g>
<g>
</g>
<g>
</g>
<g>
</g>
<g>
</g>
<g>
</g>
<g>
</g>
<g>
</g>
<g>
</g>
<g>
</g>
<g>
</g>
<g>
</g>
<g>
</g>
</svg>
